<?xml version="1.0" encoding="utf-8"?>
<?xml-stylesheet type="text/xsl" href="rss1.xsl"?>
<rss version="2.0" xmlns:atom="http://www.w3.org/2005/Atom" xmlns:content="http://purl.org/rss/1.0/modules/content/" xmlns:dc="http://purl.org/dc/elements/1.1/" xmlns:media="http://search.yahoo.com/mrss/">
<channel>
 <title>Getty</title>
 <link>http://www.gettyimg.com/</link>
 <atom:link href="http://www.gettyimg.com/" rel="self" type="application/rss+xml" />

 
                <item>
                <title><![CDATA[【MTV HD】Adele - Easy On Me [MTV Live US 1080i HDTV DD5.1 H264]]]></title>
                <link><![CDATA[https://sharemania.us/threads/adele-easy-on-me-mtv-live-us-1080i-hdtv-dd5-1-h264.249904/]]></link>
                <description><![CDATA[<article>
<blockquote class="messageText SelectQuoteContainer ugc baseHtml">
<img src="https://i.imgur.com/g8siUmU.jpg" class="bbCodeImage LbImage" alt="[​IMG]" data-url="https://i.imgur.com/g8siUmU.jpg" style=""><br>
<div class="bbCodeBlock bbCodeVfcHH HiddenContent">
<div class="attribution type">Hidden Content:</div>
<blockquote>You must either reply or click 'Like' to see the hidden information contained here.</blockquote>
</div>
<div class="messageTextEndMarker">&nbsp;</div>
</blockquote>
</article>]]></description>
                <author><![CDATA[gustavobonotto]]></author>
                </item>

                
                <item>
                <title><![CDATA[【Apple Music】WEB-RiP - Sylwia Grzeszczak - och i ach (1080p)]]></title>
                <link><![CDATA[https://sharemania.us/threads/sylwia-grzeszczak-och-i-ach-1080p.249906/]]></link>
                <description><![CDATA[<article>
<blockquote class="messageText SelectQuoteContainer ugc baseHtml">
<img src="https://i.postimg.cc/7ZcJGmDg/Sylwia-Grzeszczak-och-i-ach-mp4.jpg" class="bbCodeImage LbImage" alt="[​IMG]" data-url="https://i.postimg.cc/7ZcJGmDg/Sylwia-Grzeszczak-och-i-ach-mp4.jpg" style=""><br>
<br>
<div class="bbCodeBlock bbCodeCode">
<div class="type">Code:</div>
<pre>General
Complete name                  : G:\Новая папка\Sylwia Grzeszczak - och i ach.mp4
Format                         : MPEG-4
Format profile                 : Base Media
Codec ID                       : isom (isom/iso2/avc1/mp41)
File size                      : 233 MiB
Duration                       : 3 min 8 s
Overall bit rate               : 10.3 Mb/s
Frame rate                     : 25.000 FPS
Movie name                     : och i ach
Performer                      : Sylwia Grzeszczak
Genre                          : Pop
ContentType                    : Music Video
Recorded date                  : 2024-05-17 07:00:00 UTC
Writing application            : Lavf56.30.100
Copyright                      : ℗ © 2024 Warner Music Poland

Video
ID                             : 1
Format                         : AVC
Format/Info                    : Advanced Video Codec
Format profile                 : High@L4
Format settings                : CABAC / 4 Ref Frames
Format settings, CABAC         : Yes
Format settings, Reference fra : 4 frames
Format settings, Slice count   : 8 slices per frame
Codec ID                       : avc1
Codec ID/Info                  : Advanced Video Coding
Duration                       : 3 min 8 s
Bit rate                       : 10.1 Mb/s
Width                          : 1 920 pixels
Height                         : 1 080 pixels
Display aspect ratio           : 16:9
Frame rate mode                : Constant
Frame rate                     : 25.000 FPS
Color space                    : YUV
Chroma subsampling             : 4:2:0
Bit depth                      : 8 bits
Scan type                      : Progressive
Bits/(Pixel*Frame)             : 0.195
Stream size                    : 227 MiB (97%)
Color range                    : Limited
Color primaries                : BT.709
Transfer characteristics       : BT.709
Matrix coefficients            : BT.709
Codec configuration box        : avcC

Audio
ID                             : 2
Format                         : AAC LC
Format/Info                    : Advanced Audio Codec Low Complexity
Codec ID                       : mp4a-40-2
Duration                       : 3 min 8 s
Duration_LastFrame             : -20 ms
Bit rate mode                  : Constant
Bit rate                       : 256 kb/s
Channel(s)                     : 2 channels
Channel layout                 : L R
Sampling rate                  : 48.0 kHz
Frame rate                     : 46.875 FPS (1024 SPF)
Compression mode               : Lossy
Stream size                    : 5.75 MiB (2%)
Default                        : Yes
Alternate group                : 1

</pre>
</div>
<div class="bbCodeBlock bbCodeVfcHH HiddenContent">
<div class="attribution type">Hidden Content:</div>
<blockquote>You must either reply or click 'Like' to see the hidden information contained here.</blockquote>
</div>
<div class="messageTextEndMarker">&nbsp;</div>
</blockquote>
</article>]]></description>
                <author><![CDATA[vitalya3]]></author>
                </item>

                
                <item>
                <title><![CDATA[【MTV HD】Shaboozey, Noah Cyrus - My Fault [MTV Live US 1080i HDTV DD5.1 H264]]]></title>
                <link><![CDATA[https://sharemania.us/threads/shaboozey-noah-cyrus-my-fault-mtv-live-us-1080i-hdtv-dd5-1-h264.249910/]]></link>
                <description><![CDATA[<article>
<blockquote class="messageText SelectQuoteContainer ugc baseHtml">
<img src="https://i.imgur.com/2j1kYqM.jpg" class="bbCodeImage LbImage" alt="[​IMG]" data-url="https://i.imgur.com/2j1kYqM.jpg" style=""><br>
<div class="bbCodeBlock bbCodeVfcHH HiddenContent">
<div class="attribution type">Hidden Content:</div>
<blockquote>You must either reply or click 'Like' to see the hidden information contained here.</blockquote>
</div>
<div class="messageTextEndMarker">&nbsp;</div>
</blockquote>
</article>]]></description>
                <author><![CDATA[gustavobonotto]]></author>
                </item>

                
                <item>
                <title><![CDATA[【Apple Music】WEB-RiP - DMX - Ruff Ryders' Anthem (1080p)]]></title>
                <link><![CDATA[https://sharemania.us/threads/dmx-ruff-ryders-anthem-1080p.249901/]]></link>
                <description><![CDATA[<article>
<blockquote class="messageText SelectQuoteContainer ugc baseHtml">
<img src="https://i.postimg.cc/W4NVhxSf/DMX-Ruff-Ryders-Anthem-mp4.jpg" class="bbCodeImage LbImage" alt="[​IMG]" data-url="https://i.postimg.cc/W4NVhxSf/DMX-Ruff-Ryders-Anthem-mp4.jpg" style=""><br>
<br>
<div class="bbCodeBlock bbCodeCode">
<div class="type">Code:</div>
<pre>General
Complete name                  : G:\Новая папка\DMX - Ruff Ryders' Anthem.mp4
Format                         : MPEG-4
Format profile                 : Base Media
Codec ID                       : isom (isom/iso2/avc1/mp41)
File size                      : 264 MiB
Duration                       : 3 min 40 s
Overall bit rate               : 10.0 Mb/s
Frame rate                     : 23.976 FPS
Movie name                     : Ruff Ryders' Anthem
Performer                      : DMX
Genre                          : Hip-Hop/Rap
ContentType                    : Music Video
Recorded date                  : 2005-01-01 08:00:00 UTC
Writing application            : Lavf56.30.100
Copyright                      : ℗ 2001 The Island Def Jam Music Group

Video
ID                             : 1
Format                         : AVC
Format/Info                    : Advanced Video Codec
Format profile                 : High@L4
Format settings                : CABAC / 4 Ref Frames
Format settings, CABAC         : Yes
Format settings, Reference fra : 4 frames
Format settings, Slice count   : 8 slices per frame
Codec ID                       : avc1
Codec ID/Info                  : Advanced Video Coding
Duration                       : 3 min 40 s
Bit rate                       : 9 783 kb/s
Width                          : 1 920 pixels
Height                         : 1 026 pixels
Display aspect ratio           : 1.85:1
Frame rate mode                : Constant
Frame rate                     : 23.976 (24000/1001) FPS
Color space                    : YUV
Chroma subsampling             : 4:2:0
Bit depth                      : 8 bits
Scan type                      : Progressive
Bits/(Pixel*Frame)             : 0.207
Stream size                    : 257 MiB (97%)
Language                       : English
Color range                    : Limited
Color primaries                : BT.709
Transfer characteristics       : BT.709
Matrix coefficients            : BT.709
Codec configuration box        : avcC

Audio
ID                             : 2
Format                         : AAC LC
Format/Info                    : Advanced Audio Codec Low Complexity
Codec ID                       : mp4a-40-2
Duration                       : 3 min 40 s
Duration_LastFrame             : -17 ms
Bit rate mode                  : Constant
Bit rate                       : 265 kb/s
Channel(s)                     : 2 channels
Channel layout                 : L R
Sampling rate                  : 48.0 kHz
Frame rate                     : 46.875 FPS (1024 SPF)
Compression mode               : Lossy
Stream size                    : 6.91 MiB (3%)
Default                        : Yes
Alternate group                : 1

</pre>
</div>
<div class="bbCodeBlock bbCodeVfcHH HiddenContent">
<div class="attribution type">Hidden Content:</div>
<blockquote>You must either reply or click 'Like' to see the hidden information contained here.</blockquote>
</div>
<div class="messageTextEndMarker">&nbsp;</div>
</blockquote>
</article>]]></description>
                <author><![CDATA[vitalya3]]></author>
                </item>

                
                <item>
                <title><![CDATA[【Live Audios (lossy)】MP3 - Jão Lollapalooza]]></title>
                <link><![CDATA[https://sharemania.us/threads/j%C3%A3o-lollapalooza.249908/]]></link>
                <description><![CDATA[<article>
<blockquote class="messageText SelectQuoteContainer ugc baseHtml">
<div class="bbCodeBlock bbCodeVfcHH HiddenContent">
<div class="attribution type">Hidden Content:</div>
<blockquote>You must reply before you can see the hidden data contained here.</blockquote>
</div>
<div class="messageTextEndMarker">&nbsp;</div>
</blockquote>
</article>]]></description>
                <author><![CDATA[brendo098]]></author>
                </item>

                
                <item>
                <title><![CDATA[【MTV HD】JVKE - Golden Hour [MTV Live US 1080i HDTV DD5.1 H264]]]></title>
                <link><![CDATA[https://sharemania.us/threads/jvke-golden-hour-mtv-live-us-1080i-hdtv-dd5-1-h264.249909/]]></link>
                <description><![CDATA[<article>
<blockquote class="messageText SelectQuoteContainer ugc baseHtml">
<img src="https://i.imgur.com/g6QK2Nx.jpg" class="bbCodeImage LbImage" alt="[​IMG]" data-url="https://i.imgur.com/g6QK2Nx.jpg" style=""><br>
<div class="bbCodeBlock bbCodeVfcHH HiddenContent">
<div class="attribution type">Hidden Content:</div>
<blockquote>You must either reply or click 'Like' to see the hidden information contained here.</blockquote>
</div>
<div class="messageTextEndMarker">&nbsp;</div>
</blockquote>
</article>]]></description>
                <author><![CDATA[gustavobonotto]]></author>
                </item>

                
                <item>
                <title><![CDATA[【Apple Music】WEB-RiP - Ana Mena, Becky G &amp; De La Ghetto - Ya Es Hora (1080p)]]></title>
                <link><![CDATA[https://sharemania.us/threads/ana-mena-becky-g-de-la-ghetto-ya-es-hora-1080p.249903/]]></link>
                <description><![CDATA[<article>
<blockquote class="messageText SelectQuoteContainer ugc baseHtml">
<img src="https://i.postimg.cc/VN2wsgZJ/Ana-Mena-Becky-G-De-La-Ghetto-Ya-Es-Hora-mp4.jpg" class="bbCodeImage LbImage" alt="[​IMG]" data-url="https://i.postimg.cc/VN2wsgZJ/Ana-Mena-Becky-G-De-La-Ghetto-Ya-Es-Hora-mp4.jpg" style=""><br>
<br>
<div class="bbCodeBlock bbCodeCode">
<div class="type">Code:</div>
<pre>General
Complete name                  : G:\Новая папка\Ana Mena, Becky G &amp; De La Ghetto - Ya Es Hora.mp4
Format                         : MPEG-4
Format profile                 : Base Media
Codec ID                       : isom (isom/iso2/avc1/mp41)
File size                      : 177 MiB
Duration                       : 3 min 35 s
Overall bit rate               : 6 884 kb/s
Frame rate                     : 25.000 FPS
Movie name                     : Ya Es Hora
Performer                      : Ana Mena, Becky G &amp; De La Ghetto
Genre                          : Pop
ContentType                    : Music Video
Recorded date                  : 2018-03-16 07:00:00 UTC
Writing application            : Lavf56.30.100
Copyright                      : ℗ (C) 2018 Sony Music Entertainment España, S.L.

Video
ID                             : 1
Format                         : AVC
Format/Info                    : Advanced Video Codec
Format profile                 : High@L4
Format settings                : CABAC / 5 Ref Frames
Format settings, CABAC         : Yes
Format settings, Reference fra : 5 frames
Format settings, Slice count   : 8 slices per frame
Codec ID                       : avc1
Codec ID/Info                  : Advanced Video Coding
Duration                       : 3 min 35 s
Bit rate                       : 6 624 kb/s
Width                          : 1 920 pixels
Height                         : 720 pixels
Display aspect ratio           : 2.667
Frame rate mode                : Constant
Frame rate                     : 25.000 FPS
Color space                    : YUV
Chroma subsampling             : 4:2:0
Bit depth                      : 8 bits
Scan type                      : Progressive
Bits/(Pixel*Frame)             : 0.192
Stream size                    : 170 MiB (96%)
Color range                    : Limited
Color primaries                : BT.709
Transfer characteristics       : BT.709
Matrix coefficients            : BT.709
Codec configuration box        : avcC

Audio
ID                             : 2
Format                         : AAC LC
Format/Info                    : Advanced Audio Codec Low Complexity
Codec ID                       : mp4a-40-2
Duration                       : 3 min 35 s
Duration_LastFrame             : -15 ms
Bit rate mode                  : Constant
Bit rate                       : 256 kb/s
Channel(s)                     : 2 channels
Channel layout                 : L R
Sampling rate                  : 48.0 kHz
Frame rate                     : 46.875 FPS (1024 SPF)
Compression mode               : Lossy
Stream size                    : 6.59 MiB (4%)
Default                        : Yes
Alternate group                : 1

</pre>
</div>
<div class="bbCodeBlock bbCodeVfcHH HiddenContent">
<div class="attribution type">Hidden Content:</div>
<blockquote>You must either reply or click 'Like' to see the hidden information contained here.</blockquote>
</div>
<div class="messageTextEndMarker">&nbsp;</div>
</blockquote>
</article>]]></description>
                <author><![CDATA[vitalya3]]></author>
                </item>

                
                <item>
                <title><![CDATA[【MTV HD】Taylor Swift - I Knew You Were Trouble [MTV Live US 1080i HDTV DD5.1 H264]]]></title>
                <link><![CDATA[https://sharemania.us/threads/taylor-swift-i-knew-you-were-trouble-mtv-live-us-1080i-hdtv-dd5-1-h264.249905/]]></link>
                <description><![CDATA[<article>
<blockquote class="messageText SelectQuoteContainer ugc baseHtml">
<img src="https://i.imgur.com/pIeOrbs.jpg" class="bbCodeImage LbImage" alt="[​IMG]" data-url="https://i.imgur.com/pIeOrbs.jpg" style=""><br>
<div class="bbCodeBlock bbCodeVfcHH HiddenContent">
<div class="attribution type">Hidden Content:</div>
<blockquote>You must either reply or click 'Like' to see the hidden information contained here.</blockquote>
</div>
<div class="messageTextEndMarker">&nbsp;</div>
</blockquote>
</article>]]></description>
                <author><![CDATA[gustavobonotto]]></author>
                </item>

                
                <item>
                <title><![CDATA[【MTV HD】Sabrina Carpenter - Espresso [MTV Live US 1080i HDTV DD5.1 H264]]]></title>
                <link><![CDATA[https://sharemania.us/threads/sabrina-carpenter-espresso-mtv-live-us-1080i-hdtv-dd5-1-h264.249907/]]></link>
                <description><![CDATA[<article>
<blockquote class="messageText SelectQuoteContainer ugc baseHtml">
<img src="https://i.imgur.com/LmpbQt0.jpg" class="bbCodeImage LbImage" alt="[​IMG]" data-url="https://i.imgur.com/LmpbQt0.jpg" style=""><br>
<div class="bbCodeBlock bbCodeVfcHH HiddenContent">
<div class="attribution type">Hidden Content:</div>
<blockquote>You must either reply or click 'Like' to see the hidden information contained here.</blockquote>
</div>
<div class="messageTextEndMarker">&nbsp;</div>
</blockquote>
</article>]]></description>
                <author><![CDATA[gustavobonotto]]></author>
                </item>

                
                <item>
                <title><![CDATA[【Albums (lossless)】FLAC - LINKIN PARK - 2002 - Reanimation [24bit-192Hz] [Vinyl Rip]]]></title>
                <link><![CDATA[https://sharemania.us/threads/linkin-park-2002-reanimation-24bit-192hz-vinyl-rip.249902/]]></link>
                <description><![CDATA[<article>
<blockquote class="messageText SelectQuoteContainer ugc baseHtml">
<div style="text-align: center"><img src="https://static.qobuz.com/images/covers/42/56/0093624945642_600.jpg" class="bbCodeImage LbImage" alt="[​IMG]" data-url="https://static.qobuz.com/images/covers/42/56/0093624945642_600.jpg" style=""> <br>
<br>
<b>Band</b>: Linkin Park<br>
<b>Album</b>: Reanimation [Vinyl Rip]<br>
<b>Date</b>: 29 July 2002<br>
<b>Genre</b>: Nu-Metal / Alternative Rock<br>
<b>Quality</b>: 24bit-192kHz<br>
<b>Country</b>: USA<br>
<b>Size</b>: 3,0GB<br>
<br>
<b>Tracklist</b>:<br>
<br>
1-Opening 01:07<br>
2-Pts.Of.Athrty (Jay Gordon Reanimation) 03:45<br>
3-Enth E Nd (Kutmasta Kurt Reanimation) [feat. Motion Man] 03:59<br>
4-[Chali] 00:23<br>
5-Frgt/10 (Alchemist Reanimation) [feat. Chali 2na] 03:32<br>
6-P5hng Me A*wy (Mike Shinoda Reanimation) [feat. Stephen Richards] 04:37<br>
7-Plc.4 Mie Hæd (Amp Live Reanimation) [feat. Zion] 04:20<br>
8-X-Ecutioner Style (feat. Black Thought) 01:49<br>
9-H! Vltg3 (Evidence Reanimation) [feat. Pharoahe Monch and DJ Babu] 03:30<br>
10-[Riff Raff] 00:21<br>
11-Wth&gt;You (Chairman Hahn Reanimation) [feat. Aceyalone] 04:12<br>
12-Ntr\mssion 00:29<br>
13-Ppr:kut (Cheapshot and Jubacca Reanimation) [feat. Rasco and Planet Asia] 03:26<br>
14-Rnw@y (Backyard Bangers Reanimation) [feat. Phoenix Orion] 03:13<br>
15-My&lt;Dsmbr (Mickey P. Reanimation) [feat. Kelli Ali] 04:17<br>
16-[Stef] 00:10<br>
17-By_Myslf (Josh Abraham and Mike Shinoda Reanimation) 03:42<br>
18-Kyur4 Th Ich (Chairman Hahn Reanimation) 02:32<br>
19-1Stp Klosr (The Humble Brothers Reanimation) [feat. Jonathan Davis] 05:46<br>
20-Krwlng (Mike Shinoda Reanimation) [feat. Aaron Lewis] 05:40<br>
<br>
<b><span style="font-size: 22px"><span style="color: #b30000">Send.cm</span></span></b>:<br>
<br>
<div class="bbCodeBlock bbCodeVfcHH HiddenContent">
<div class="attribution type">Hidden Content:</div>
<blockquote>You must either reply or click 'Like' to see the hidden information contained here.</blockquote>
</div></div>
<div class="messageTextEndMarker">&nbsp;</div>
</blockquote>
</article>]]></description>
                <author><![CDATA[XRB80]]></author>
                </item>

                
                <item>
                <title><![CDATA[【Cinema Center】SERIES - Ejen.Ali.S03.1080p.DSNP.WEB-DL.AAC2.0.H.264-Samuel]]></title>
                <link><![CDATA[https://sharemania.us/threads/ejen-ali-s03-1080p-dsnp-web-dl-aac2-0-h-264-samuel.249900/]]></link>
                <description><![CDATA[<article>
<blockquote class="messageText SelectQuoteContainer ugc baseHtml">
<div style="text-align: center"><b><span style="font-size: 26px">Ejen Ali</span><br>
<span style="font-size: 22px">Season 3</span></b><br>
<img src="https://i.imgur.com/bALtQRG.jpeg" class="bbCodeImage LbImage" alt="[​IMG]" data-url="https://i.imgur.com/bALtQRG.jpeg" style=""><br>
<b><a href="https://i.imgur.com/XKgKGKs.png" target="_blank" class="externalLink" rel="nofollow">Alternate Artwork 1</a></b> | <b><a href="https://i.imgur.com/zeXbb9U.png" target="_blank" class="externalLink" rel="nofollow">Alternate Artwork 2</a></b> | <b><a href="https://i.imgur.com/vAbkbyV.png" target="_blank" class="externalLink" rel="nofollow">Alternate Artwork 3</a></b> | <b><a href="https://i.imgur.com/HJ5H6SC.png" target="_blank" class="externalLink" rel="nofollow">Alternate Artwork 4</a></b> | <b><a href="https://i.imgur.com/ViXHFI6.jpeg" target="_blank" class="externalLink" rel="nofollow">Alternate Artwork 5</a></b> | <b><a href="https://i.imgur.com/snwgW0E.jpeg" target="_blank" class="externalLink" rel="nofollow">Alternate Artwork 6</a></b> | <b><a href="https://i.imgur.com/o5YJmNt.jpeg" target="_blank" class="externalLink" rel="nofollow">Alternate Artwork 7</a></b> | <b><a href="https://i.imgur.com/RxeBRul.jpeg" target="_blank" class="externalLink" rel="nofollow">Header 1</a></b> | <b><a href="https://i.imgur.com/VxCyctX.jpeg" target="_blank" class="externalLink" rel="nofollow">Header 2</a></b> | <b><a href="https://i.imgur.com/MzcITwl.png" target="_blank" class="externalLink" rel="nofollow">Poster 1</a></b> | <b><a href="https://i.imgur.com/T5crkVb.jpeg" target="_blank" class="externalLink" rel="nofollow">Poster 2</a></b> | <b><a href="https://i.imgur.com/6DcYL7Z.jpeg" target="_blank" class="externalLink" rel="nofollow">Poster 3</a></b> | <b><a href="https://i.imgur.com/WoRA9am.jpeg" target="_blank" class="externalLink" rel="nofollow">Poster 4</a></b> | <b><a href="https://i.imgur.com/5dZC8CV.png" target="_blank" class="externalLink" rel="nofollow">Thumbnail 1</a></b> | <b><a href="https://i.imgur.com/2iGWH8H.png" target="_blank" class="externalLink" rel="nofollow">Thumbnail 2</a></b> | <b><a href="https://i.imgur.com/n2MFkNF.png" target="_blank" class="externalLink" rel="nofollow">Thumbnail 3</a></b> | <b><a href="https://i.imgur.com/5yf80XU.png" target="_blank" class="externalLink" rel="nofollow">Thumbnail 4</a></b> | <b><a href="https://i.imgur.com/3H2J9t8.png" target="_blank" class="externalLink" rel="nofollow">Thumbnail 5</a></b> | <b><a href="https://i.imgur.com/VUt9LwN.png" target="_blank" class="externalLink" rel="nofollow">Thumbnail 6</a></b> | <b><a href="https://i.imgur.com/EEvpShw.png" target="_blank" class="externalLink" rel="nofollow">Thumbnail 7</a></b> | <b><a href="https://i.imgur.com/M9z6eMc.png" target="_blank" class="externalLink" rel="nofollow">Thumbnail 8</a></b> | <b><a href="https://i.imgur.com/ROuUbaD.png" target="_blank" class="externalLink" rel="nofollow">Thumbnail 9</a></b> | <b><a href="https://i.imgur.com/KilSpwJ.png" target="_blank" class="externalLink" rel="nofollow">Thumbnail 10</a></b> | <b><a href="https://i.imgur.com/EcaeCDH.png" target="_blank" class="externalLink" rel="nofollow">Thumbnail 11</a></b> | <b><a href="https://i.imgur.com/9jaa8yq.png" target="_blank" class="externalLink" rel="nofollow">Thumbnail 12</a></b> | <b><a href="https://i.imgur.com/fNOI57A.png" target="_blank" class="externalLink" rel="nofollow">Thumbnail 13</a></b> | <b><a href="https://i.imgur.com/L9jEYvF.png" target="_blank" class="externalLink" rel="nofollow">Thumbnail 14</a></b> | <b><a href="https://i.imgur.com/Fe87ldY.png" target="_blank" class="externalLink" rel="nofollow">Thumbnail 15</a></b> | <b><a href="https://i.imgur.com/hqNhvjS.jpeg" target="_blank" class="externalLink" rel="nofollow">Key Art</a></b><br>
<br>
<img src="https://i.imgur.com/Qv7lmsY.png" class="bbCodeImage LbImage" alt="[​IMG]" data-url="https://i.imgur.com/Qv7lmsY.png" style=""> <img src="https://i.imgur.com/ckHEWYh.png" class="bbCodeImage LbImage" alt="[​IMG]" data-url="https://i.imgur.com/ckHEWYh.png" style=""> <img src="https://i.imgur.com/wGbLQp4.png" class="bbCodeImage LbImage" alt="[​IMG]" data-url="https://i.imgur.com/wGbLQp4.png" style=""><br>
2022 • 1 Season<br>
Science Fiction, Spy/Espionage, Animation, Action-Adventure<br>
<br>
<div class="bbCodeBlock bbCodeQuote">
<aside>
<blockquote class="quoteContainer"><div class="quote"><b><span style="font-size: 15px"><span style="font-family: 'Arial'">Description</span></span></b><br>
A boy named Ali accidentally binds to Infinity Retinal Intelligence System (IRIS), belonging to Meta Advance Tactical Agency (MATA). MATA unwillingly recruits Ali as a spy to protect Cyberaya city from enemies. While he tries to live a normal life, he discovers his abilities through exciting adventures.</div><div class="quoteExpand">Click to expand...</div></blockquote>
</aside>
</div>
<div class="bbCodeBlock bbCodeQuote">
<aside>
<blockquote class="quoteContainer"><div class="quote"><b><span style="font-size: 15px"><span style="font-family: 'Arial'">More Information</span></span></b><br>
<b>Long Description:</b><br>
A boy named Ali accidentally binds to Infinity Retinal Intelligence System (IRIS), belonging to Meta Advance Tactical Agency (MATA). MATA unwillingly recruits Ali as a spy to protect Cyberaya city from enemies. While he tries to live a normal life, he discovers his abilities through exciting adventures.<br>
<b>Duration:</b> 21m<br>
<b>Release Date:</b> 2022<br>
<b>Genre:</b> Science Fiction, Spy/Espionage, Animation, Action-Adventure<br>
<b>Series Rating:</b> <img src="https://i.imgur.com/Qv7lmsY.png" class="bbCodeImage LbImage" alt="[​IMG]" data-url="https://i.imgur.com/Qv7lmsY.png" style=""><br>
<b>Season 3 Rating:</b> <img src="https://i.imgur.com/Qv7lmsY.png" class="bbCodeImage LbImage" alt="[​IMG]" data-url="https://i.imgur.com/Qv7lmsY.png" style=""><br>
<b>Available in the following formats:</b> <img src="https://i.imgur.com/ckHEWYh.png" class="bbCodeImage LbImage" alt="[​IMG]" data-url="https://i.imgur.com/ckHEWYh.png" style=""> <img src="https://i.imgur.com/wGbLQp4.png" class="bbCodeImage LbImage" alt="[​IMG]" data-url="https://i.imgur.com/wGbLQp4.png" style=""><br>
<b>Starring:</b> Ida Rahayu, Noorhayati Maslini, Shafiq Isa, Azman Zulkiply, Nor Meirysha, Syahrul Matnizam</div><div class="quoteExpand quoteCut">Click to expand...</div></blockquote>
</aside>
</div>
<div class="bbCodeBlock bbCodeQuote">
<aside>
<blockquote class="quoteContainer"><div class="quote"><b><span style="font-size: 15px">Source</span></b><br>
<img src="https://i.imgur.com/I198e8q.png" class="bbCodeImage LbImage" alt="[​IMG]" data-url="https://i.imgur.com/I198e8q.png" style=""></div><div class="quoteExpand">Click to expand...</div></blockquote>
</aside>
</div>
<div class="bbCodeBlock bbCodeQuote">
<aside>
<blockquote class="quoteContainer"><div class="quote"><b><span style="font-size: 15px">Release Name</span></b><br>
Ejen.Ali.S03.1080p.DSNP.WEB-DL.AAC2.0.H.264-Samuel</div><div class="quoteExpand">Click to expand...</div></blockquote>
</aside>
</div>
<div class="ToggleTriggerAnchor bbCodeSpoilerContainer">
<button type="button" class="button bbCodeSpoilerButton ToggleTrigger Tooltip JsOnly" data-target="> .SpoilerTarget"><span>Spoiler: <span class="SpoilerTitle">Media Information</span></span></button>
<div class="SpoilerTarget bbCodeSpoilerText"><b><span style="text-decoration: underline">Episode 1: Mission : Arena</span></b><br>
General<br>
Complete name : Ejen.Ali.S03E01.Mission..Arena.1080p.DSNP.WEB-DL.AAC2.0.H.264-Samuel.mkv<br>
Format : Matroska<br>
Format version : Version 4<br>
File size : 1.09 GiB<br>
Duration : 21 min 15 s<br>
Overall bit rate mode : Variable<br>
Overall bit rate : 7 353 kb/s<br>
Frame rate : 25.000 FPS<br>
Encoded date : 2024-07-10 01:06:46 UTC<br>
Writing application : mkvmerge v85.0 ('Shame For You') 64-bit<br>
Writing library : libebml v1.4.5 + libmatroska v1.7.1<br>
<br>
Video<br>
ID : 1<br>
Format : AVC<br>
Format/Info : Advanced Video Codec<br>
Format profile : High@L4<br>
Format settings : CABAC / 4 Ref Frames<br>
Format settings, CABAC : Yes<br>
Format settings, Reference frames : 4 frames<br>
Codec ID : V_MPEG4/ISO/AVC<br>
Duration : 21 min 15 s<br>
Bit rate mode : Variable<br>
Bit rate : 7 099 kb/s<br>
Maximum bit rate : 12.7 Mb/s<br>
Width : 1 920 pixels<br>
Height : 1 080 pixels<br>
Display aspect ratio : 16:9<br>
Frame rate mode : Constant<br>
Frame rate : 25.000 FPS<br>
Color space : YUV<br>
Chroma subsampling : 4:2:0<br>
Bit depth : 8 bits<br>
Scan type : Progressive<br>
Bits/(Pixel*Frame) : 0.137<br>
Time code of first frame : 00:00:00;00<br>
Stream size : 1.05 GiB (97%)<br>
Default : Yes<br>
Forced : No<br>
Color range : Limited<br>
Color primaries : BT.709<br>
Transfer characteristics : BT.709<br>
Matrix coefficients : BT.709<br>
<br>
Audio #1<br>
ID : 2<br>
Format : AAC LC<br>
Format/Info : Advanced Audio Codec Low Complexity<br>
Codec ID : A_AAC-2<br>
Duration : 21 min 15 s<br>
Bit rate : 125 kb/s<br>
Channel(s) : 2 channels<br>
Channel layout : L R<br>
Sampling rate : 48.0 kHz<br>
Frame rate : 46.875 FPS (1024 SPF)<br>
Compression mode : Lossy<br>
Stream size : 19.1 MiB (2%)<br>
Language : English<br>
Default : Yes<br>
Forced : No<br>
<br>
Audio #2<br>
ID : 3<br>
Format : AAC LC<br>
Format/Info : Advanced Audio Codec Low Complexity<br>
Codec ID : A_AAC-2<br>
Duration : 21 min 15 s<br>
Bit rate : 125 kb/s<br>
Channel(s) : 2 channels<br>
Channel layout : L R<br>
Sampling rate : 48.0 kHz<br>
Frame rate : 46.875 FPS (1024 SPF)<br>
Compression mode : Lossy<br>
Stream size : 19.1 MiB (2%)<br>
Language : Malay<br>
Default : No<br>
Forced : No<br>
<br>
Text #1<br>
ID : 4<br>
Format : UTF-8<br>
Codec ID : S_TEXT/UTF8<br>
Codec ID/Info : UTF-8 Plain Text<br>
Duration : 14 min 57 s<br>
Bit rate : 0 b/s<br>
Frame rate : 0.003 FPS<br>
Count of elements : 3<br>
Stream size : 53.0 Bytes (0%)<br>
Title : Forced<br>
Language : English<br>
Default : No<br>
Forced : Yes<br>
<br>
Text #2<br>
ID : 5<br>
Format : UTF-8<br>
Codec ID : S_TEXT/UTF8<br>
Codec ID/Info : UTF-8 Plain Text<br>
Duration : 19 min 27 s<br>
Bit rate : 43 b/s<br>
Frame rate : 0.225 FPS<br>
Count of elements : 263<br>
Stream size : 6.19 KiB (0%)<br>
Language : English<br>
Default : No<br>
Forced : No<br>
<br>
Text #3<br>
ID : 6<br>
Format : UTF-8<br>
Codec ID : S_TEXT/UTF8<br>
Codec ID/Info : UTF-8 Plain Text<br>
Duration : 19 min 27 s<br>
Bit rate : 45 b/s<br>
Frame rate : 0.236 FPS<br>
Count of elements : 276<br>
Stream size : 6.48 KiB (0%)<br>
Language : Malay<br>
Default : No<br>
Forced : No<br>
<br>
Text #4<br>
ID : 7<br>
Format : UTF-8<br>
Codec ID : S_TEXT/UTF8<br>
Codec ID/Info : UTF-8 Plain Text<br>
Duration : 19 min 27 s<br>
Bit rate : 37 b/s<br>
Frame rate : 0.245 FPS<br>
Count of elements : 286<br>
Stream size : 5.33 KiB (0%)<br>
Title : Simplified<br>
Language : Chinese<br>
Default : No<br>
Forced : No<br>
<br>
<b><span style="text-decoration: underline">Episode 2: Mission : Possible</span></b><br>
General<br>
Complete name : Ejen.Ali.S03E02.Mission..Possible.1080p.DSNP.WEB-DL.AAC2.0.H.264-Samuel.mkv<br>
Format : Matroska<br>
Format version : Version 4<br>
File size : 1.17 GiB<br>
Duration : 23 min 33 s<br>
Overall bit rate mode : Variable<br>
Overall bit rate : 7 113 kb/s<br>
Frame rate : 25.000 FPS<br>
Encoded date : 2024-07-10 01:07:52 UTC<br>
Writing application : mkvmerge v85.0 ('Shame For You') 64-bit<br>
Writing library : libebml v1.4.5 + libmatroska v1.7.1<br>
<br>
Video<br>
ID : 1<br>
Format : AVC<br>
Format/Info : Advanced Video Codec<br>
Format profile : High@L4<br>
Format settings : CABAC / 4 Ref Frames<br>
Format settings, CABAC : Yes<br>
Format settings, Reference frames : 4 frames<br>
Codec ID : V_MPEG4/ISO/AVC<br>
Duration : 23 min 33 s<br>
Bit rate mode : Variable<br>
Bit rate : 6 859 kb/s<br>
Maximum bit rate : 12.7 Mb/s<br>
Width : 1 920 pixels<br>
Height : 1 080 pixels<br>
Display aspect ratio : 16:9<br>
Frame rate mode : Constant<br>
Frame rate : 25.000 FPS<br>
Color space : YUV<br>
Chroma subsampling : 4:2:0<br>
Bit depth : 8 bits<br>
Scan type : Progressive<br>
Bits/(Pixel*Frame) : 0.132<br>
Time code of first frame : 00:00:00;00<br>
Stream size : 1.13 GiB (96%)<br>
Default : Yes<br>
Forced : No<br>
Color range : Limited<br>
Color primaries : BT.709<br>
Transfer characteristics : BT.709<br>
Matrix coefficients : BT.709<br>
<br>
Audio #1<br>
ID : 2<br>
Format : AAC LC<br>
Format/Info : Advanced Audio Codec Low Complexity<br>
Codec ID : A_AAC-2<br>
Duration : 23 min 33 s<br>
Bit rate : 125 kb/s<br>
Channel(s) : 2 channels<br>
Channel layout : L R<br>
Sampling rate : 48.0 kHz<br>
Frame rate : 46.875 FPS (1024 SPF)<br>
Compression mode : Lossy<br>
Stream size : 21.1 MiB (2%)<br>
Language : English<br>
Default : Yes<br>
Forced : No<br>
<br>
Audio #2<br>
ID : 3<br>
Format : AAC LC<br>
Format/Info : Advanced Audio Codec Low Complexity<br>
Codec ID : A_AAC-2<br>
Duration : 23 min 33 s<br>
Bit rate : 125 kb/s<br>
Channel(s) : 2 channels<br>
Channel layout : L R<br>
Sampling rate : 48.0 kHz<br>
Frame rate : 46.875 FPS (1024 SPF)<br>
Compression mode : Lossy<br>
Stream size : 21.1 MiB (2%)<br>
Language : Malay<br>
Default : No<br>
Forced : No<br>
<br>
Text #1<br>
ID : 4<br>
Format : UTF-8<br>
Codec ID : S_TEXT/UTF8<br>
Codec ID/Info : UTF-8 Plain Text<br>
Duration : 9 min 4 s<br>
Bit rate : 0 b/s<br>
Frame rate : 0.004 FPS<br>
Count of elements : 2<br>
Stream size : 48.0 Bytes (0%)<br>
Title : Forced<br>
Language : English<br>
Default : No<br>
Forced : Yes<br>
<br>
Text #2<br>
ID : 5<br>
Format : UTF-8<br>
Codec ID : S_TEXT/UTF8<br>
Codec ID/Info : UTF-8 Plain Text<br>
Duration : 21 min 51 s<br>
Bit rate : 46 b/s<br>
Frame rate : 0.239 FPS<br>
Count of elements : 314<br>
Stream size : 7.43 KiB (0%)<br>
Language : English<br>
Default : No<br>
Forced : No<br>
<br>
Text #3<br>
ID : 6<br>
Format : UTF-8<br>
Codec ID : S_TEXT/UTF8<br>
Codec ID/Info : UTF-8 Plain Text<br>
Duration : 21 min 52 s<br>
Bit rate : 50 b/s<br>
Frame rate : 0.255 FPS<br>
Count of elements : 335<br>
Stream size : 8.11 KiB (0%)<br>
Language : Malay<br>
Default : No<br>
Forced : No<br>
<br>
Text #4<br>
ID : 7<br>
Format : UTF-8<br>
Codec ID : S_TEXT/UTF8<br>
Codec ID/Info : UTF-8 Plain Text<br>
Duration : 21 min 51 s<br>
Bit rate : 40 b/s<br>
Frame rate : 0.255 FPS<br>
Count of elements : 335<br>
Stream size : 6.45 KiB (0%)<br>
Title : Simplified<br>
Language : Chinese<br>
Default : No<br>
Forced : No<br>
<br>
<b><span style="text-decoration: underline">Episode 3: Mission : Upgrade</span></b><br>
General<br>
Complete name : Ejen.Ali.S03E03.Mission..Upgrade.1080p.DSNP.WEB-DL.AAC2.0.H.264-Samuel.mkv<br>
Format : Matroska<br>
Format version : Version 4<br>
File size : 1.06 GiB<br>
Duration : 21 min 7 s<br>
Overall bit rate mode : Variable<br>
Overall bit rate : 7 158 kb/s<br>
Frame rate : 25.000 FPS<br>
Encoded date : 2024-07-10 02:31:22 UTC<br>
Writing application : mkvmerge v85.0 ('Shame For You') 64-bit<br>
Writing library : libebml v1.4.5 + libmatroska v1.7.1<br>
<br>
Video<br>
ID : 1<br>
Format : AVC<br>
Format/Info : Advanced Video Codec<br>
Format profile : High@L4<br>
Format settings : CABAC / 4 Ref Frames<br>
Format settings, CABAC : Yes<br>
Format settings, Reference frames : 4 frames<br>
Codec ID : V_MPEG4/ISO/AVC<br>
Duration : 21 min 7 s<br>
Bit rate mode : Variable<br>
Bit rate : 6 904 kb/s<br>
Maximum bit rate : 12.7 Mb/s<br>
Width : 1 920 pixels<br>
Height : 1 080 pixels<br>
Display aspect ratio : 16:9<br>
Frame rate mode : Constant<br>
Frame rate : 25.000 FPS<br>
Color space : YUV<br>
Chroma subsampling : 4:2:0<br>
Bit depth : 8 bits<br>
Scan type : Progressive<br>
Bits/(Pixel*Frame) : 0.133<br>
Time code of first frame : 00:00:00;00<br>
Stream size : 1.02 GiB (96%)<br>
Default : Yes<br>
Forced : No<br>
Color range : Limited<br>
Color primaries : BT.709<br>
Transfer characteristics : BT.709<br>
Matrix coefficients : BT.709<br>
<br>
Audio #1<br>
ID : 2<br>
Format : AAC LC<br>
Format/Info : Advanced Audio Codec Low Complexity<br>
Codec ID : A_AAC-2<br>
Duration : 21 min 7 s<br>
Bit rate : 125 kb/s<br>
Channel(s) : 2 channels<br>
Channel layout : L R<br>
Sampling rate : 48.0 kHz<br>
Frame rate : 46.875 FPS (1024 SPF)<br>
Compression mode : Lossy<br>
Stream size : 18.9 MiB (2%)<br>
Language : English<br>
Default : Yes<br>
Forced : No<br>
<br>
Audio #2<br>
ID : 3<br>
Format : AAC LC<br>
Format/Info : Advanced Audio Codec Low Complexity<br>
Codec ID : A_AAC-2<br>
Duration : 21 min 7 s<br>
Bit rate : 125 kb/s<br>
Channel(s) : 2 channels<br>
Channel layout : L R<br>
Sampling rate : 48.0 kHz<br>
Frame rate : 46.875 FPS (1024 SPF)<br>
Compression mode : Lossy<br>
Stream size : 18.9 MiB (2%)<br>
Language : Malay<br>
Default : No<br>
Forced : No<br>
<br>
Text #1<br>
ID : 4<br>
Format : UTF-8<br>
Codec ID : S_TEXT/UTF8<br>
Codec ID/Info : UTF-8 Plain Text<br>
Duration : 5 min 0 s<br>
Bit rate : 0 b/s<br>
Frame rate : 0.007 FPS<br>
Count of elements : 2<br>
Stream size : 30.0 Bytes (0%)<br>
Title : Forced<br>
Language : English<br>
Default : No<br>
Forced : Yes<br>
<br>
Text #2<br>
ID : 5<br>
Format : UTF-8<br>
Codec ID : S_TEXT/UTF8<br>
Codec ID/Info : UTF-8 Plain Text<br>
Duration : 19 min 29 s<br>
Bit rate : 47 b/s<br>
Frame rate : 0.229 FPS<br>
Count of elements : 268<br>
Stream size : 6.82 KiB (0%)<br>
Language : English<br>
Default : No<br>
Forced : No<br>
<br>
Text #3<br>
ID : 6<br>
Format : UTF-8<br>
Codec ID : S_TEXT/UTF8<br>
Codec ID/Info : UTF-8 Plain Text<br>
Duration : 19 min 29 s<br>
Bit rate : 49 b/s<br>
Frame rate : 0.232 FPS<br>
Count of elements : 271<br>
Stream size : 7.07 KiB (0%)<br>
Language : Malay<br>
Default : No<br>
Forced : No<br>
<br>
Text #4<br>
ID : 7<br>
Format : UTF-8<br>
Codec ID : S_TEXT/UTF8<br>
Codec ID/Info : UTF-8 Plain Text<br>
Duration : 19 min 29 s<br>
Bit rate : 38 b/s<br>
Frame rate : 0.237 FPS<br>
Count of elements : 277<br>
Stream size : 5.55 KiB (0%)<br>
Title : Simplified<br>
Language : Chinese<br>
Default : No<br>
Forced : No<br>
<br>
<b><span style="text-decoration: underline">Episode 4: Mission : Payback</span></b><br>
General<br>
Complete name : Ejen.Ali.S03E04.Mission.Payback.1080p.DSNP.WEB-DL.AAC2.0.H.264-Samuel.mkv<br>
Format : Matroska<br>
Format version : Version 4<br>
File size : 1.03 GiB<br>
Duration : 20 min 3 s<br>
Overall bit rate mode : Variable<br>
Overall bit rate : 7 375 kb/s<br>
Frame rate : 25.000 FPS<br>
Encoded date : 2024-07-10 01:10:30 UTC<br>
Writing application : mkvmerge v85.0 ('Shame For You') 64-bit<br>
Writing library : libebml v1.4.5 + libmatroska v1.7.1<br>
<br>
Video<br>
ID : 1<br>
Format : AVC<br>
Format/Info : Advanced Video Codec<br>
Format profile : High@L4<br>
Format settings : CABAC / 4 Ref Frames<br>
Format settings, CABAC : Yes<br>
Format settings, Reference frames : 4 frames<br>
Codec ID : V_MPEG4/ISO/AVC<br>
Duration : 20 min 3 s<br>
Bit rate mode : Variable<br>
Bit rate : 7 121 kb/s<br>
Maximum bit rate : 12.7 Mb/s<br>
Width : 1 920 pixels<br>
Height : 1 080 pixels<br>
Display aspect ratio : 16:9<br>
Frame rate mode : Constant<br>
Frame rate : 25.000 FPS<br>
Color space : YUV<br>
Chroma subsampling : 4:2:0<br>
Bit depth : 8 bits<br>
Scan type : Progressive<br>
Bits/(Pixel*Frame) : 0.137<br>
Time code of first frame : 00:00:00;00<br>
Stream size : 1 022 MiB (97%)<br>
Default : Yes<br>
Forced : No<br>
Color range : Limited<br>
Color primaries : BT.709<br>
Transfer characteristics : BT.709<br>
Matrix coefficients : BT.709<br>
<br>
Audio #1<br>
ID : 2<br>
Format : AAC LC<br>
Format/Info : Advanced Audio Codec Low Complexity<br>
Codec ID : A_AAC-2<br>
Duration : 20 min 3 s<br>
Bit rate : 125 kb/s<br>
Channel(s) : 2 channels<br>
Channel layout : L R<br>
Sampling rate : 48.0 kHz<br>
Frame rate : 46.875 FPS (1024 SPF)<br>
Compression mode : Lossy<br>
Stream size : 18.0 MiB (2%)<br>
Language : English<br>
Default : Yes<br>
Forced : No<br>
<br>
Audio #2<br>
ID : 3<br>
Format : AAC LC<br>
Format/Info : Advanced Audio Codec Low Complexity<br>
Codec ID : A_AAC-2<br>
Duration : 20 min 3 s<br>
Bit rate : 125 kb/s<br>
Channel(s) : 2 channels<br>
Channel layout : L R<br>
Sampling rate : 48.0 kHz<br>
Frame rate : 46.875 FPS (1024 SPF)<br>
Compression mode : Lossy<br>
Stream size : 18.0 MiB (2%)<br>
Language : Malay<br>
Default : No<br>
Forced : No<br>
<br>
Text #1<br>
ID : 4<br>
Format : UTF-8<br>
Codec ID : S_TEXT/UTF8<br>
Codec ID/Info : UTF-8 Plain Text<br>
Duration : 11 min 4 s<br>
Bit rate : 0 b/s<br>
Frame rate : 0.003 FPS<br>
Count of elements : 2<br>
Stream size : 51.0 Bytes (0%)<br>
Title : Forced<br>
Language : English<br>
Default : No<br>
Forced : Yes<br>
<br>
Text #2<br>
ID : 5<br>
Format : UTF-8<br>
Codec ID : S_TEXT/UTF8<br>
Codec ID/Info : UTF-8 Plain Text<br>
Duration : 18 min 12 s<br>
Bit rate : 39 b/s<br>
Frame rate : 0.208 FPS<br>
Count of elements : 227<br>
Stream size : 5.31 KiB (0%)<br>
Language : English<br>
Default : No<br>
Forced : No<br>
<br>
Text #3<br>
ID : 6<br>
Format : UTF-8<br>
Codec ID : S_TEXT/UTF8<br>
Codec ID/Info : UTF-8 Plain Text<br>
Duration : 18 min 12 s<br>
Bit rate : 43 b/s<br>
Frame rate : 0.207 FPS<br>
Count of elements : 226<br>
Stream size : 5.76 KiB (0%)<br>
Language : Malay<br>
Default : No<br>
Forced : No<br>
<br>
Text #4<br>
ID : 7<br>
Format : UTF-8<br>
Codec ID : S_TEXT/UTF8<br>
Codec ID/Info : UTF-8 Plain Text<br>
Duration : 18 min 12 s<br>
Bit rate : 35 b/s<br>
Frame rate : 0.216 FPS<br>
Count of elements : 236<br>
Stream size : 4.70 KiB (0%)<br>
Title : Simplified<br>
Language : Chinese<br>
Default : No<br>
Forced : No<br>
<br>
<b><span style="text-decoration: underline">Episode 5: Mission : Blackout</span></b><br>
General<br>
Complete name : Ejen.Ali.S03E05.Mission..Blackout.1080p.DSNP.WEB-DL.AAC2.0.H.264-Samuel.mkv<br>
Format : Matroska<br>
Format version : Version 4<br>
File size : 1 005 MiB<br>
Duration : 20 min 12 s<br>
Overall bit rate mode : Variable<br>
Overall bit rate : 6 953 kb/s<br>
Frame rate : 25.000 FPS<br>
Encoded date : 2024-07-10 01:11:22 UTC<br>
Writing application : mkvmerge v85.0 ('Shame For You') 64-bit<br>
Writing library : libebml v1.4.5 + libmatroska v1.7.1<br>
<br>
Video<br>
ID : 1<br>
Format : AVC<br>
Format/Info : Advanced Video Codec<br>
Format profile : High@L4<br>
Format settings : CABAC / 4 Ref Frames<br>
Format settings, CABAC : Yes<br>
Format settings, Reference frames : 4 frames<br>
Codec ID : V_MPEG4/ISO/AVC<br>
Duration : 20 min 12 s<br>
Bit rate mode : Variable<br>
Bit rate : 6 699 kb/s<br>
Maximum bit rate : 12.7 Mb/s<br>
Width : 1 920 pixels<br>
Height : 1 080 pixels<br>
Display aspect ratio : 16:9<br>
Frame rate mode : Constant<br>
Frame rate : 25.000 FPS<br>
Color space : YUV<br>
Chroma subsampling : 4:2:0<br>
Bit depth : 8 bits<br>
Scan type : Progressive<br>
Bits/(Pixel*Frame) : 0.129<br>
Time code of first frame : 00:00:00;00<br>
Stream size : 968 MiB (96%)<br>
Default : Yes<br>
Forced : No<br>
Color range : Limited<br>
Color primaries : BT.709<br>
Transfer characteristics : BT.709<br>
Matrix coefficients : BT.709<br>
<br>
Audio #1<br>
ID : 2<br>
Format : AAC LC<br>
Format/Info : Advanced Audio Codec Low Complexity<br>
Codec ID : A_AAC-2<br>
Duration : 20 min 12 s<br>
Bit rate : 125 kb/s<br>
Channel(s) : 2 channels<br>
Channel layout : L R<br>
Sampling rate : 48.0 kHz<br>
Frame rate : 46.875 FPS (1024 SPF)<br>
Compression mode : Lossy<br>
Stream size : 18.1 MiB (2%)<br>
Language : English<br>
Default : Yes<br>
Forced : No<br>
<br>
Audio #2<br>
ID : 3<br>
Format : AAC LC<br>
Format/Info : Advanced Audio Codec Low Complexity<br>
Codec ID : A_AAC-2<br>
Duration : 20 min 12 s<br>
Bit rate : 125 kb/s<br>
Channel(s) : 2 channels<br>
Channel layout : L R<br>
Sampling rate : 48.0 kHz<br>
Frame rate : 46.875 FPS (1024 SPF)<br>
Compression mode : Lossy<br>
Stream size : 18.1 MiB (2%)<br>
Language : Malay<br>
Default : No<br>
Forced : No<br>
<br>
Text #1<br>
ID : 4<br>
Format : UTF-8<br>
Codec ID : S_TEXT/UTF8<br>
Codec ID/Info : UTF-8 Plain Text<br>
Duration : 2 s 960 ms<br>
Bit rate : 45 b/s<br>
Frame rate : 0.338 FPS<br>
Count of elements : 1<br>
Stream size : 17.0 Bytes (0%)<br>
Title : Forced<br>
Language : English<br>
Default : No<br>
Forced : Yes<br>
<br>
Text #2<br>
ID : 5<br>
Format : UTF-8<br>
Codec ID : S_TEXT/UTF8<br>
Codec ID/Info : UTF-8 Plain Text<br>
Duration : 18 min 29 s<br>
Bit rate : 44 b/s<br>
Frame rate : 0.209 FPS<br>
Count of elements : 232<br>
Stream size : 6.08 KiB (0%)<br>
Language : English<br>
Default : No<br>
Forced : No<br>
<br>
Text #3<br>
ID : 6<br>
Format : UTF-8<br>
Codec ID : S_TEXT/UTF8<br>
Codec ID/Info : UTF-8 Plain Text<br>
Duration : 18 min 29 s<br>
Bit rate : 47 b/s<br>
Frame rate : 0.214 FPS<br>
Count of elements : 237<br>
Stream size : 6.45 KiB (0%)<br>
Language : Malay<br>
Default : No<br>
Forced : No<br>
<br>
Text #4<br>
ID : 7<br>
Format : UTF-8<br>
Codec ID : S_TEXT/UTF8<br>
Codec ID/Info : UTF-8 Plain Text<br>
Duration : 18 min 29 s<br>
Bit rate : 39 b/s<br>
Frame rate : 0.226 FPS<br>
Count of elements : 251<br>
Stream size : 5.40 KiB (0%)<br>
Title : Simplified<br>
Language : Chinese<br>
Default : No<br>
Forced : No<br>
<br>
<b><span style="text-decoration: underline">Episode 6: Mission : Hunt</span></b><br>
General<br>
Complete name : Ejen.Ali.S03E06.Mission..Hunt.1080p.DSNP.WEB-DL.AAC2.0.H.264-Samuel.mkv<br>
Format : Matroska<br>
Format version : Version 4<br>
File size : 1.08 GiB<br>
Duration : 21 min 49 s<br>
Overall bit rate mode : Variable<br>
Overall bit rate : 7 064 kb/s<br>
Frame rate : 25.000 FPS<br>
Encoded date : 2024-07-10 01:12:09 UTC<br>
Writing application : mkvmerge v85.0 ('Shame For You') 64-bit<br>
Writing library : libebml v1.4.5 + libmatroska v1.7.1<br>
<br>
Video<br>
ID : 1<br>
Format : AVC<br>
Format/Info : Advanced Video Codec<br>
Format profile : High@L4<br>
Format settings : CABAC / 4 Ref Frames<br>
Format settings, CABAC : Yes<br>
Format settings, Reference frames : 4 frames<br>
Codec ID : V_MPEG4/ISO/AVC<br>
Duration : 21 min 49 s<br>
Bit rate mode : Variable<br>
Bit rate : 6 810 kb/s<br>
Maximum bit rate : 12.7 Mb/s<br>
Width : 1 920 pixels<br>
Height : 1 080 pixels<br>
Display aspect ratio : 16:9<br>
Frame rate mode : Constant<br>
Frame rate : 25.000 FPS<br>
Color space : YUV<br>
Chroma subsampling : 4:2:0<br>
Bit depth : 8 bits<br>
Scan type : Progressive<br>
Bits/(Pixel*Frame) : 0.131<br>
Time code of first frame : 00:00:00;00<br>
Stream size : 1.04 GiB (96%)<br>
Default : Yes<br>
Forced : No<br>
Color range : Limited<br>
Color primaries : BT.709<br>
Transfer characteristics : BT.709<br>
Matrix coefficients : BT.709<br>
<br>
Audio #1<br>
ID : 2<br>
Format : AAC LC<br>
Format/Info : Advanced Audio Codec Low Complexity<br>
Codec ID : A_AAC-2<br>
Duration : 21 min 49 s<br>
Bit rate : 125 kb/s<br>
Channel(s) : 2 channels<br>
Channel layout : L R<br>
Sampling rate : 48.0 kHz<br>
Frame rate : 46.875 FPS (1024 SPF)<br>
Compression mode : Lossy<br>
Stream size : 19.6 MiB (2%)<br>
Language : English<br>
Default : Yes<br>
Forced : No<br>
<br>
Audio #2<br>
ID : 3<br>
Format : AAC LC<br>
Format/Info : Advanced Audio Codec Low Complexity<br>
Codec ID : A_AAC-2<br>
Duration : 21 min 49 s<br>
Bit rate : 125 kb/s<br>
Channel(s) : 2 channels<br>
Channel layout : L R<br>
Sampling rate : 48.0 kHz<br>
Frame rate : 46.875 FPS (1024 SPF)<br>
Compression mode : Lossy<br>
Stream size : 19.6 MiB (2%)<br>
Language : Malay<br>
Default : No<br>
Forced : No<br>
<br>
Text #1<br>
ID : 4<br>
Format : UTF-8<br>
Codec ID : S_TEXT/UTF8<br>
Codec ID/Info : UTF-8 Plain Text<br>
Duration : 14 min 30 s<br>
Bit rate : 3 b/s<br>
Frame rate : 0.010 FPS<br>
Count of elements : 9<br>
Stream size : 419 Bytes (0%)<br>
Title : Forced<br>
Language : English<br>
Default : No<br>
Forced : Yes<br>
<br>
Text #2<br>
ID : 5<br>
Format : UTF-8<br>
Codec ID : S_TEXT/UTF8<br>
Codec ID/Info : UTF-8 Plain Text<br>
Duration : 21 min 30 s<br>
Bit rate : 44 b/s<br>
Frame rate : 0.224 FPS<br>
Count of elements : 289<br>
Stream size : 6.96 KiB (0%)<br>
Language : English<br>
Default : No<br>
Forced : No<br>
<br>
Text #3<br>
ID : 6<br>
Format : UTF-8<br>
Codec ID : S_TEXT/UTF8<br>
Codec ID/Info : UTF-8 Plain Text<br>
Duration : 20 min 10 s<br>
Bit rate : 46 b/s<br>
Frame rate : 0.225 FPS<br>
Count of elements : 272<br>
Stream size : 6.81 KiB (0%)<br>
Language : Malay<br>
Default : No<br>
Forced : No<br>
<br>
Text #4<br>
ID : 7<br>
Format : UTF-8<br>
Codec ID : S_TEXT/UTF8<br>
Codec ID/Info : UTF-8 Plain Text<br>
Duration : 20 min 9 s<br>
Bit rate : 41 b/s<br>
Frame rate : 0.239 FPS<br>
Count of elements : 289<br>
Stream size : 6.20 KiB (0%)<br>
Title : Simplified<br>
Language : Chinese<br>
Default : No<br>
Forced : No<br>
<br>
<b><span style="text-decoration: underline">Episode 7: Mission : Trap</span></b><br>
General<br>
Complete name : Ejen.Ali.S03E07.Mission..Trap.1080p.DSNP.WEB-DL.AAC2.0.H.264-Samuel.mkv<br>
Format : Matroska<br>
Format version : Version 4<br>
File size : 1.02 GiB<br>
Duration : 19 min 58 s<br>
Overall bit rate mode : Variable<br>
Overall bit rate : 7 301 kb/s<br>
Frame rate : 25.000 FPS<br>
Encoded date : 2024-07-10 01:12:57 UTC<br>
Writing application : mkvmerge v85.0 ('Shame For You') 64-bit<br>
Writing library : libebml v1.4.5 + libmatroska v1.7.1<br>
<br>
Video<br>
ID : 1<br>
Format : AVC<br>
Format/Info : Advanced Video Codec<br>
Format profile : High@L4<br>
Format settings : CABAC / 4 Ref Frames<br>
Format settings, CABAC : Yes<br>
Format settings, Reference frames : 4 frames<br>
Codec ID : V_MPEG4/ISO/AVC<br>
Duration : 19 min 58 s<br>
Bit rate mode : Variable<br>
Bit rate : 7 047 kb/s<br>
Maximum bit rate : 12.7 Mb/s<br>
Width : 1 920 pixels<br>
Height : 1 080 pixels<br>
Display aspect ratio : 16:9<br>
Frame rate mode : Constant<br>
Frame rate : 25.000 FPS<br>
Color space : YUV<br>
Chroma subsampling : 4:2:0<br>
Bit depth : 8 bits<br>
Scan type : Progressive<br>
Bits/(Pixel*Frame) : 0.136<br>
Time code of first frame : 00:00:00;00<br>
Stream size : 1 007 MiB (97%)<br>
Default : Yes<br>
Forced : No<br>
Color range : Limited<br>
Color primaries : BT.709<br>
Transfer characteristics : BT.709<br>
Matrix coefficients : BT.709<br>
<br>
Audio #1<br>
ID : 2<br>
Format : AAC LC<br>
Format/Info : Advanced Audio Codec Low Complexity<br>
Codec ID : A_AAC-2<br>
Duration : 19 min 58 s<br>
Bit rate : 125 kb/s<br>
Channel(s) : 2 channels<br>
Channel layout : L R<br>
Sampling rate : 48.0 kHz<br>
Frame rate : 46.875 FPS (1024 SPF)<br>
Compression mode : Lossy<br>
Stream size : 17.9 MiB (2%)<br>
Language : English<br>
Default : Yes<br>
Forced : No<br>
<br>
Audio #2<br>
ID : 3<br>
Format : AAC LC<br>
Format/Info : Advanced Audio Codec Low Complexity<br>
Codec ID : A_AAC-2<br>
Duration : 19 min 58 s<br>
Bit rate : 125 kb/s<br>
Channel(s) : 2 channels<br>
Channel layout : L R<br>
Sampling rate : 48.0 kHz<br>
Frame rate : 46.875 FPS (1024 SPF)<br>
Compression mode : Lossy<br>
Stream size : 17.9 MiB (2%)<br>
Language : Malay<br>
Default : No<br>
Forced : No<br>
<br>
Text #1<br>
ID : 4<br>
Format : UTF-8<br>
Codec ID : S_TEXT/UTF8<br>
Codec ID/Info : UTF-8 Plain Text<br>
Duration : 1 s 840 ms<br>
Bit rate : 56 b/s<br>
Frame rate : 0.543 FPS<br>
Count of elements : 1<br>
Stream size : 13.0 Bytes (0%)<br>
Title : Forced<br>
Language : English<br>
Default : No<br>
Forced : Yes<br>
<br>
Text #2<br>
ID : 5<br>
Format : UTF-8<br>
Codec ID : S_TEXT/UTF8<br>
Codec ID/Info : UTF-8 Plain Text<br>
Duration : 17 min 13 s<br>
Bit rate : 27 b/s<br>
Frame rate : 0.139 FPS<br>
Count of elements : 144<br>
Stream size : 3.50 KiB (0%)<br>
Language : English<br>
Default : No<br>
Forced : No<br>
<br>
Text #3<br>
ID : 6<br>
Format : UTF-8<br>
Codec ID : S_TEXT/UTF8<br>
Codec ID/Info : UTF-8 Plain Text<br>
Duration : 17 min 31 s<br>
Bit rate : 28 b/s<br>
Frame rate : 0.146 FPS<br>
Count of elements : 153<br>
Stream size : 3.69 KiB (0%)<br>
Language : Malay<br>
Default : No<br>
Forced : No<br>
<br>
Text #4<br>
ID : 7<br>
Format : UTF-8<br>
Codec ID : S_TEXT/UTF8<br>
Codec ID/Info : UTF-8 Plain Text<br>
Duration : 17 min 36 s<br>
Bit rate : 23 b/s<br>
Frame rate : 0.144 FPS<br>
Count of elements : 152<br>
Stream size : 3.00 KiB (0%)<br>
Title : Simplified<br>
Language : Chinese<br>
Default : No<br>
Forced : No<br>
<br>
Menu<br>
00:00:00.000 : en:Scene 1<br>
00:02:27.640 : en:Intro<br>
00:02:58.920 : en:intro_end / en:Scene 2<br>
00:12:52.440 : en:Scene 3<br>
00:18:13.520 : en:Credits<br>
<br>
<b><span style="text-decoration: underline">Episode 8: Mission : Change</span></b><br>
General<br>
Complete name : Ejen.Ali.S03E08.Mission..Change.1080p.DSNP.WEB-DL.AAC2.0.H.264-Samuel.mkv<br>
Format : Matroska<br>
Format version : Version 4<br>
File size : 1.11 GiB<br>
Duration : 20 min 46 s<br>
Overall bit rate mode : Variable<br>
Overall bit rate : 7 618 kb/s<br>
Frame rate : 25.000 FPS<br>
Encoded date : 2024-07-10 01:13:52 UTC<br>
Writing application : mkvmerge v85.0 ('Shame For You') 64-bit<br>
Writing library : libebml v1.4.5 + libmatroska v1.7.1<br>
<br>
Video<br>
ID : 1<br>
Format : AVC<br>
Format/Info : Advanced Video Codec<br>
Format profile : High@L4<br>
Format settings : CABAC / 4 Ref Frames<br>
Format settings, CABAC : Yes<br>
Format settings, Reference frames : 4 frames<br>
Codec ID : V_MPEG4/ISO/AVC<br>
Duration : 20 min 46 s<br>
Bit rate mode : Variable<br>
Bit rate : 7 364 kb/s<br>
Maximum bit rate : 12.7 Mb/s<br>
Width : 1 920 pixels<br>
Height : 1 080 pixels<br>
Display aspect ratio : 16:9<br>
Frame rate mode : Constant<br>
Frame rate : 25.000 FPS<br>
Color space : YUV<br>
Chroma subsampling : 4:2:0<br>
Bit depth : 8 bits<br>
Scan type : Progressive<br>
Bits/(Pixel*Frame) : 0.142<br>
Time code of first frame : 00:00:00;00<br>
Stream size : 1.07 GiB (97%)<br>
Default : Yes<br>
Forced : No<br>
Color range : Limited<br>
Color primaries : BT.709<br>
Transfer characteristics : BT.709<br>
Matrix coefficients : BT.709<br>
<br>
Audio #1<br>
ID : 2<br>
Format : AAC LC<br>
Format/Info : Advanced Audio Codec Low Complexity<br>
Codec ID : A_AAC-2<br>
Duration : 20 min 46 s<br>
Bit rate : 125 kb/s<br>
Channel(s) : 2 channels<br>
Channel layout : L R<br>
Sampling rate : 48.0 kHz<br>
Frame rate : 46.875 FPS (1024 SPF)<br>
Compression mode : Lossy<br>
Stream size : 18.6 MiB (2%)<br>
Language : English<br>
Default : Yes<br>
Forced : No<br>
<br>
Audio #2<br>
ID : 3<br>
Format : AAC LC<br>
Format/Info : Advanced Audio Codec Low Complexity<br>
Codec ID : A_AAC-2<br>
Duration : 20 min 46 s<br>
Bit rate : 125 kb/s<br>
Channel(s) : 2 channels<br>
Channel layout : L R<br>
Sampling rate : 48.0 kHz<br>
Frame rate : 46.875 FPS (1024 SPF)<br>
Compression mode : Lossy<br>
Stream size : 18.6 MiB (2%)<br>
Language : Malay<br>
Default : No<br>
Forced : No<br>
<br>
Text #1<br>
ID : 4<br>
Format : UTF-8<br>
Codec ID : S_TEXT/UTF8<br>
Codec ID/Info : UTF-8 Plain Text<br>
Duration : 2 s 360 ms<br>
Bit rate : 50 b/s<br>
Frame rate : 0.424 FPS<br>
Count of elements : 1<br>
Stream size : 15.0 Bytes (0%)<br>
Title : Forced<br>
Language : English<br>
Default : No<br>
Forced : Yes<br>
<br>
Text #2<br>
ID : 5<br>
Format : UTF-8<br>
Codec ID : S_TEXT/UTF8<br>
Codec ID/Info : UTF-8 Plain Text<br>
Duration : 18 min 23 s<br>
Bit rate : 40 b/s<br>
Frame rate : 0.176 FPS<br>
Count of elements : 194<br>
Stream size : 5.39 KiB (0%)<br>
Language : English<br>
Default : No<br>
Forced : No<br>
<br>
Text #3<br>
ID : 6<br>
Format : UTF-8<br>
Codec ID : S_TEXT/UTF8<br>
Codec ID/Info : UTF-8 Plain Text<br>
Duration : 18 min 20 s<br>
Bit rate : 41 b/s<br>
Frame rate : 0.195 FPS<br>
Count of elements : 215<br>
Stream size : 5.63 KiB (0%)<br>
Language : Malay<br>
Default : No<br>
Forced : No<br>
<br>
Text #4<br>
ID : 7<br>
Format : UTF-8<br>
Codec ID : S_TEXT/UTF8<br>
Codec ID/Info : UTF-8 Plain Text<br>
Duration : 18 min 43 s<br>
Bit rate : 35 b/s<br>
Frame rate : 0.198 FPS<br>
Count of elements : 222<br>
Stream size : 4.93 KiB (0%)<br>
Title : Simplified<br>
Language : Chinese<br>
Default : No<br>
Forced : No<br>
<br>
<b><span style="text-decoration: underline">Episode 9: Mission : Hybrid</span></b><br>
General<br>
Complete name : Ejen.Ali.S03E09.Mission..Hybrid.1080p.DSNP.WEB-DL.AAC2.0.H.264-Samuel.mkv<br>
Format : Matroska<br>
Format version : Version 4<br>
File size : 1.09 GiB<br>
Duration : 21 min 53 s<br>
Overall bit rate mode : Variable<br>
Overall bit rate : 7 102 kb/s<br>
Frame rate : 25.000 FPS<br>
Encoded date : 2024-07-10 01:14:47 UTC<br>
Writing application : mkvmerge v85.0 ('Shame For You') 64-bit<br>
Writing library : libebml v1.4.5 + libmatroska v1.7.1<br>
<br>
Video<br>
ID : 1<br>
Format : AVC<br>
Format/Info : Advanced Video Codec<br>
Format profile : High@L4<br>
Format settings : CABAC / 4 Ref Frames<br>
Format settings, CABAC : Yes<br>
Format settings, Reference frames : 4 frames<br>
Codec ID : V_MPEG4/ISO/AVC<br>
Duration : 21 min 53 s<br>
Bit rate mode : Variable<br>
Bit rate : 6 847 kb/s<br>
Maximum bit rate : 12.7 Mb/s<br>
Width : 1 920 pixels<br>
Height : 1 080 pixels<br>
Display aspect ratio : 16:9<br>
Frame rate mode : Constant<br>
Frame rate : 25.000 FPS<br>
Color space : YUV<br>
Chroma subsampling : 4:2:0<br>
Bit depth : 8 bits<br>
Scan type : Progressive<br>
Bits/(Pixel*Frame) : 0.132<br>
Time code of first frame : 00:00:00;00<br>
Stream size : 1.05 GiB (96%)<br>
Default : Yes<br>
Forced : No<br>
Color range : Limited<br>
Color primaries : BT.709<br>
Transfer characteristics : BT.709<br>
Matrix coefficients : BT.709<br>
<br>
Audio #1<br>
ID : 2<br>
Format : AAC LC<br>
Format/Info : Advanced Audio Codec Low Complexity<br>
Codec ID : A_AAC-2<br>
Duration : 21 min 53 s<br>
Bit rate : 125 kb/s<br>
Channel(s) : 2 channels<br>
Channel layout : L R<br>
Sampling rate : 48.0 kHz<br>
Frame rate : 46.875 FPS (1024 SPF)<br>
Compression mode : Lossy<br>
Stream size : 19.6 MiB (2%)<br>
Language : English<br>
Default : Yes<br>
Forced : No<br>
<br>
Audio #2<br>
ID : 3<br>
Format : AAC LC<br>
Format/Info : Advanced Audio Codec Low Complexity<br>
Codec ID : A_AAC-2<br>
Duration : 21 min 53 s<br>
Bit rate : 125 kb/s<br>
Channel(s) : 2 channels<br>
Channel layout : L R<br>
Sampling rate : 48.0 kHz<br>
Frame rate : 46.875 FPS (1024 SPF)<br>
Compression mode : Lossy<br>
Stream size : 19.6 MiB (2%)<br>
Language : Malay<br>
Default : No<br>
Forced : No<br>
<br>
Text #1<br>
ID : 4<br>
Format : UTF-8<br>
Codec ID : S_TEXT/UTF8<br>
Codec ID/Info : UTF-8 Plain Text<br>
Duration : 16 min 48 s<br>
Bit rate : 0 b/s<br>
Frame rate : 0.003 FPS<br>
Count of elements : 3<br>
Stream size : 37.0 Bytes (0%)<br>
Title : Forced<br>
Language : English<br>
Default : No<br>
Forced : Yes<br>
<br>
Text #2<br>
ID : 5<br>
Format : UTF-8<br>
Codec ID : S_TEXT/UTF8<br>
Codec ID/Info : UTF-8 Plain Text<br>
Duration : 18 min 23 s<br>
Bit rate : 40 b/s<br>
Frame rate : 0.176 FPS<br>
Count of elements : 194<br>
Stream size : 5.39 KiB (0%)<br>
Language : English<br>
Default : No<br>
Forced : No<br>
<br>
Text #3<br>
ID : 6<br>
Format : UTF-8<br>
Codec ID : S_TEXT/UTF8<br>
Codec ID/Info : UTF-8 Plain Text<br>
Duration : 20 min 11 s<br>
Bit rate : 54 b/s<br>
Frame rate : 0.207 FPS<br>
Count of elements : 251<br>
Stream size : 8.03 KiB (0%)<br>
Language : Malay<br>
Default : No<br>
Forced : No<br>
<br>
Text #4<br>
ID : 7<br>
Format : UTF-8<br>
Codec ID : S_TEXT/UTF8<br>
Codec ID/Info : UTF-8 Plain Text<br>
Duration : 20 min 11 s<br>
Bit rate : 41 b/s<br>
Frame rate : 0.201 FPS<br>
Count of elements : 244<br>
Stream size : 6.18 KiB (0%)<br>
Title : Simplified<br>
Language : Chinese<br>
Default : No<br>
Forced : No<br>
<br>
<b><span style="text-decoration: underline">Episode 10: Mission : Camp</span></b><br>
General<br>
Complete name : Ejen.Ali.S03E10.Mission..Camp.1080p.DSNP.WEB-DL.AAC2.0.H.264-Samuel.mkv<br>
Format : Matroska<br>
Format version : Version 4<br>
File size : 993 MiB<br>
Duration : 20 min 29 s<br>
Overall bit rate mode : Variable<br>
Overall bit rate : 6 779 kb/s<br>
Frame rate : 25.000 FPS<br>
Encoded date : 2024-07-10 01:15:40 UTC<br>
Writing application : mkvmerge v85.0 ('Shame For You') 64-bit<br>
Writing library : libebml v1.4.5 + libmatroska v1.7.1<br>
<br>
Video<br>
ID : 1<br>
Format : AVC<br>
Format/Info : Advanced Video Codec<br>
Format profile : High@L4<br>
Format settings : CABAC / 4 Ref Frames<br>
Format settings, CABAC : Yes<br>
Format settings, Reference frames : 4 frames<br>
Codec ID : V_MPEG4/ISO/AVC<br>
Duration : 20 min 29 s<br>
Bit rate mode : Variable<br>
Bit rate : 6 525 kb/s<br>
Maximum bit rate : 12.7 Mb/s<br>
Width : 1 920 pixels<br>
Height : 1 080 pixels<br>
Display aspect ratio : 16:9<br>
Frame rate mode : Constant<br>
Frame rate : 25.000 FPS<br>
Color space : YUV<br>
Chroma subsampling : 4:2:0<br>
Bit depth : 8 bits<br>
Scan type : Progressive<br>
Bits/(Pixel*Frame) : 0.126<br>
Time code of first frame : 00:00:00;00<br>
Stream size : 956 MiB (96%)<br>
Default : Yes<br>
Forced : No<br>
Color range : Limited<br>
Color primaries : BT.709<br>
Transfer characteristics : BT.709<br>
Matrix coefficients : BT.709<br>
<br>
Audio #1<br>
ID : 2<br>
Format : AAC LC<br>
Format/Info : Advanced Audio Codec Low Complexity<br>
Codec ID : A_AAC-2<br>
Duration : 20 min 29 s<br>
Bit rate : 125 kb/s<br>
Channel(s) : 2 channels<br>
Channel layout : L R<br>
Sampling rate : 48.0 kHz<br>
Frame rate : 46.875 FPS (1024 SPF)<br>
Compression mode : Lossy<br>
Stream size : 18.4 MiB (2%)<br>
Language : English<br>
Default : Yes<br>
Forced : No<br>
<br>
Audio #2<br>
ID : 3<br>
Format : AAC LC<br>
Format/Info : Advanced Audio Codec Low Complexity<br>
Codec ID : A_AAC-2<br>
Duration : 20 min 29 s<br>
Bit rate : 125 kb/s<br>
Channel(s) : 2 channels<br>
Channel layout : L R<br>
Sampling rate : 48.0 kHz<br>
Frame rate : 46.875 FPS (1024 SPF)<br>
Compression mode : Lossy<br>
Stream size : 18.4 MiB (2%)<br>
Language : Malay<br>
Default : No<br>
Forced : No<br>
<br>
Text #1<br>
ID : 4<br>
Format : UTF-8<br>
Codec ID : S_TEXT/UTF8<br>
Codec ID/Info : UTF-8 Plain Text<br>
Duration : 2 s 120 ms<br>
Bit rate : 49 b/s<br>
Frame rate : 0.472 FPS<br>
Count of elements : 1<br>
Stream size : 13.0 Bytes (0%)<br>
Title : Forced<br>
Language : English<br>
Default : No<br>
Forced : Yes<br>
<br>
Text #2<br>
ID : 5<br>
Format : UTF-8<br>
Codec ID : S_TEXT/UTF8<br>
Codec ID/Info : UTF-8 Plain Text<br>
Duration : 18 min 49 s<br>
Bit rate : 45 b/s<br>
Frame rate : 0.186 FPS<br>
Count of elements : 210<br>
Stream size : 6.29 KiB (0%)<br>
Language : English<br>
Default : No<br>
Forced : No<br>
<br>
Text #3<br>
ID : 6<br>
Format : UTF-8<br>
Codec ID : S_TEXT/UTF8<br>
Codec ID/Info : UTF-8 Plain Text<br>
Duration : 18 min 50 s<br>
Bit rate : 47 b/s<br>
Frame rate : 0.197 FPS<br>
Count of elements : 223<br>
Stream size : 6.61 KiB (0%)<br>
Language : Malay<br>
Default : No<br>
Forced : No<br>
<br>
Text #4<br>
ID : 7<br>
Format : UTF-8<br>
Codec ID : S_TEXT/UTF8<br>
Codec ID/Info : UTF-8 Plain Text<br>
Duration : 18 min 49 s<br>
Bit rate : 40 b/s<br>
Frame rate : 0.202 FPS<br>
Count of elements : 228<br>
Stream size : 5.59 KiB (0%)<br>
Title : Simplified<br>
Language : Chinese<br>
Default : No<br>
Forced : No<br>
<br>
<b><span style="text-decoration: underline">Episode 11: Mission : Vital</span></b><br>
General<br>
Complete name : Ejen.Ali.S03E11.Mission..Vital.1080p.DSNP.WEB-DL.AAC2.0.H.264-Samuel.mkv<br>
Format : Matroska<br>
Format version : Version 4<br>
File size : 1.15 GiB<br>
Duration : 21 min 11 s<br>
Overall bit rate mode : Variable<br>
Overall bit rate : 7 743 kb/s<br>
Frame rate : 25.000 FPS<br>
Encoded date : 2024-07-10 01:16:28 UTC<br>
Writing application : mkvmerge v85.0 ('Shame For You') 64-bit<br>
Writing library : libebml v1.4.5 + libmatroska v1.7.1<br>
<br>
Video<br>
ID : 1<br>
Format : AVC<br>
Format/Info : Advanced Video Codec<br>
Format profile : High@L4<br>
Format settings : CABAC / 4 Ref Frames<br>
Format settings, CABAC : Yes<br>
Format settings, Reference frames : 4 frames<br>
Codec ID : V_MPEG4/ISO/AVC<br>
Duration : 21 min 11 s<br>
Bit rate mode : Variable<br>
Bit rate : 7 489 kb/s<br>
Maximum bit rate : 12.7 Mb/s<br>
Width : 1 920 pixels<br>
Height : 1 080 pixels<br>
Display aspect ratio : 16:9<br>
Frame rate mode : Constant<br>
Frame rate : 25.000 FPS<br>
Color space : YUV<br>
Chroma subsampling : 4:2:0<br>
Bit depth : 8 bits<br>
Scan type : Progressive<br>
Bits/(Pixel*Frame) : 0.144<br>
Time code of first frame : 00:00:00;00<br>
Stream size : 1.11 GiB (97%)<br>
Default : Yes<br>
Forced : No<br>
Color range : Limited<br>
Color primaries : BT.709<br>
Transfer characteristics : BT.709<br>
Matrix coefficients : BT.709<br>
<br>
Audio #1<br>
ID : 2<br>
Format : AAC LC<br>
Format/Info : Advanced Audio Codec Low Complexity<br>
Codec ID : A_AAC-2<br>
Duration : 21 min 11 s<br>
Bit rate : 125 kb/s<br>
Channel(s) : 2 channels<br>
Channel layout : L R<br>
Sampling rate : 48.0 kHz<br>
Frame rate : 46.875 FPS (1024 SPF)<br>
Compression mode : Lossy<br>
Stream size : 19.0 MiB (2%)<br>
Language : English<br>
Default : Yes<br>
Forced : No<br>
<br>
Audio #2<br>
ID : 3<br>
Format : AAC LC<br>
Format/Info : Advanced Audio Codec Low Complexity<br>
Codec ID : A_AAC-2<br>
Duration : 21 min 11 s<br>
Bit rate : 125 kb/s<br>
Channel(s) : 2 channels<br>
Channel layout : L R<br>
Sampling rate : 48.0 kHz<br>
Frame rate : 46.875 FPS (1024 SPF)<br>
Compression mode : Lossy<br>
Stream size : 19.0 MiB (2%)<br>
Language : Malay<br>
Default : No<br>
Forced : No<br>
<br>
Text #1<br>
ID : 4<br>
Format : UTF-8<br>
Codec ID : S_TEXT/UTF8<br>
Codec ID/Info : UTF-8 Plain Text<br>
Duration : 1 min 25 s<br>
Bit rate : 2 b/s<br>
Frame rate : 0.023 FPS<br>
Count of elements : 2<br>
Stream size : 26.0 Bytes (0%)<br>
Title : Forced<br>
Language : English<br>
Default : No<br>
Forced : Yes<br>
<br>
Text #2<br>
ID : 5<br>
Format : UTF-8<br>
Codec ID : S_TEXT/UTF8<br>
Codec ID/Info : UTF-8 Plain Text<br>
Duration : 19 min 24 s<br>
Bit rate : 29 b/s<br>
Frame rate : 0.127 FPS<br>
Count of elements : 148<br>
Stream size : 4.14 KiB (0%)<br>
Language : English<br>
Default : No<br>
Forced : No<br>
<br>
Text #3<br>
ID : 6<br>
Format : UTF-8<br>
Codec ID : S_TEXT/UTF8<br>
Codec ID/Info : UTF-8 Plain Text<br>
Duration : 18 min 52 s<br>
Bit rate : 30 b/s<br>
Frame rate : 0.138 FPS<br>
Count of elements : 156<br>
Stream size : 4.19 KiB (0%)<br>
Language : Malay<br>
Default : No<br>
Forced : No<br>
<br>
<b><span style="text-decoration: underline">Episode 12: Mission : Sting</span></b><br>
General<br>
Complete name : Ejen.Ali.S03E12.Mission..Sting.1080p.DSNP.WEB-DL.AAC2.0.H.264-Samuel.mkv<br>
Format : Matroska<br>
Format version : Version 4<br>
File size : 1.29 GiB<br>
Duration : 22 min 39 s<br>
Overall bit rate mode : Variable<br>
Overall bit rate : 8 142 kb/s<br>
Frame rate : 25.000 FPS<br>
Encoded date : 2024-07-10 01:17:29 UTC<br>
Writing application : mkvmerge v85.0 ('Shame For You') 64-bit<br>
Writing library : libebml v1.4.5 + libmatroska v1.7.1<br>
<br>
Video<br>
ID : 1<br>
Format : AVC<br>
Format/Info : Advanced Video Codec<br>
Format profile : High@L4<br>
Format settings : CABAC / 4 Ref Frames<br>
Format settings, CABAC : Yes<br>
Format settings, Reference frames : 4 frames<br>
Codec ID : V_MPEG4/ISO/AVC<br>
Duration : 22 min 39 s<br>
Bit rate mode : Variable<br>
Bit rate : 7 888 kb/s<br>
Maximum bit rate : 12.7 Mb/s<br>
Width : 1 920 pixels<br>
Height : 1 080 pixels<br>
Display aspect ratio : 16:9<br>
Frame rate mode : Constant<br>
Frame rate : 25.000 FPS<br>
Color space : YUV<br>
Chroma subsampling : 4:2:0<br>
Bit depth : 8 bits<br>
Scan type : Progressive<br>
Bits/(Pixel*Frame) : 0.152<br>
Time code of first frame : 00:00:00;00<br>
Stream size : 1.25 GiB (97%)<br>
Default : Yes<br>
Forced : No<br>
Color range : Limited<br>
Color primaries : BT.709<br>
Transfer characteristics : BT.709<br>
Matrix coefficients : BT.709<br>
<br>
Audio #1<br>
ID : 2<br>
Format : AAC LC<br>
Format/Info : Advanced Audio Codec Low Complexity<br>
Codec ID : A_AAC-2<br>
Duration : 22 min 39 s<br>
Bit rate : 125 kb/s<br>
Channel(s) : 2 channels<br>
Channel layout : L R<br>
Sampling rate : 48.0 kHz<br>
Frame rate : 46.875 FPS (1024 SPF)<br>
Compression mode : Lossy<br>
Stream size : 20.3 MiB (2%)<br>
Language : English<br>
Default : Yes<br>
Forced : No<br>
<br>
Audio #2<br>
ID : 3<br>
Format : AAC LC<br>
Format/Info : Advanced Audio Codec Low Complexity<br>
Codec ID : A_AAC-2<br>
Duration : 22 min 39 s<br>
Bit rate : 125 kb/s<br>
Channel(s) : 2 channels<br>
Channel layout : L R<br>
Sampling rate : 48.0 kHz<br>
Frame rate : 46.875 FPS (1024 SPF)<br>
Compression mode : Lossy<br>
Stream size : 20.3 MiB (2%)<br>
Language : Malay<br>
Default : No<br>
Forced : No<br>
<br>
Text #1<br>
ID : 4<br>
Format : UTF-8<br>
Codec ID : S_TEXT/UTF8<br>
Codec ID/Info : UTF-8 Plain Text<br>
Duration : 55 s 920 ms<br>
Bit rate : 3 b/s<br>
Frame rate : 0.036 FPS<br>
Count of elements : 2<br>
Stream size : 25.0 Bytes (0%)<br>
Title : Forced<br>
Language : English<br>
Default : No<br>
Forced : Yes<br>
<br>
Text #2<br>
ID : 5<br>
Format : UTF-8<br>
Codec ID : S_TEXT/UTF8<br>
Codec ID/Info : UTF-8 Plain Text<br>
Duration : 20 min 53 s<br>
Bit rate : 29 b/s<br>
Frame rate : 0.148 FPS<br>
Count of elements : 185<br>
Stream size : 4.51 KiB (0%)<br>
Language : English<br>
Default : No<br>
Forced : No<br>
<br>
Text #3<br>
ID : 6<br>
Format : UTF-8<br>
Codec ID : S_TEXT/UTF8<br>
Codec ID/Info : UTF-8 Plain Text<br>
Duration : 20 min 54 s<br>
Bit rate : 31 b/s<br>
Frame rate : 0.152 FPS<br>
Count of elements : 191<br>
Stream size : 4.82 KiB (0%)<br>
Language : Malay<br>
Default : No<br>
Forced : No<br>
<br>
<b><span style="text-decoration: underline">Episode 13: Mission : Champion</span></b><br>
General<br>
Complete name : Ejen.Ali.S03E13.Mission..Champion.1080p.DSNP.WEB-DL.AAC2.0.H.264-Samuel.mkv<br>
Format : Matroska<br>
Format version : Version 4<br>
File size : 1.27 GiB<br>
Duration : 23 min 16 s<br>
Overall bit rate mode : Variable<br>
Overall bit rate : 7 793 kb/s<br>
Frame rate : 25.000 FPS<br>
Encoded date : 2024-07-10 01:18:36 UTC<br>
Writing application : mkvmerge v85.0 ('Shame For You') 64-bit<br>
Writing library : libebml v1.4.5 + libmatroska v1.7.1<br>
<br>
Video<br>
ID : 1<br>
Format : AVC<br>
Format/Info : Advanced Video Codec<br>
Format profile : High@L4<br>
Format settings : CABAC / 4 Ref Frames<br>
Format settings, CABAC : Yes<br>
Format settings, Reference frames : 4 frames<br>
Codec ID : V_MPEG4/ISO/AVC<br>
Duration : 23 min 16 s<br>
Bit rate mode : Variable<br>
Bit rate : 7 539 kb/s<br>
Maximum bit rate : 12.7 Mb/s<br>
Width : 1 920 pixels<br>
Height : 1 080 pixels<br>
Display aspect ratio : 16:9<br>
Frame rate mode : Constant<br>
Frame rate : 25.000 FPS<br>
Color space : YUV<br>
Chroma subsampling : 4:2:0<br>
Bit depth : 8 bits<br>
Scan type : Progressive<br>
Bits/(Pixel*Frame) : 0.145<br>
Time code of first frame : 00:00:00;00<br>
Stream size : 1.23 GiB (97%)<br>
Default : Yes<br>
Forced : No<br>
Color range : Limited<br>
Color primaries : BT.709<br>
Transfer characteristics : BT.709<br>
Matrix coefficients : BT.709<br>
<br>
Audio #1<br>
ID : 2<br>
Format : AAC LC<br>
Format/Info : Advanced Audio Codec Low Complexity<br>
Codec ID : A_AAC-2<br>
Duration : 23 min 16 s<br>
Bit rate : 125 kb/s<br>
Channel(s) : 2 channels<br>
Channel layout : L R<br>
Sampling rate : 48.0 kHz<br>
Frame rate : 46.875 FPS (1024 SPF)<br>
Compression mode : Lossy<br>
Stream size : 20.9 MiB (2%)<br>
Language : English<br>
Default : Yes<br>
Forced : No<br>
<br>
Audio #2<br>
ID : 3<br>
Format : AAC LC<br>
Format/Info : Advanced Audio Codec Low Complexity<br>
Codec ID : A_AAC-2<br>
Duration : 23 min 16 s<br>
Bit rate : 125 kb/s<br>
Channel(s) : 2 channels<br>
Channel layout : L R<br>
Sampling rate : 48.0 kHz<br>
Frame rate : 46.875 FPS (1024 SPF)<br>
Compression mode : Lossy<br>
Stream size : 20.9 MiB (2%)<br>
Language : Malay<br>
Default : No<br>
Forced : No<br>
<br>
Text #1<br>
ID : 4<br>
Format : UTF-8<br>
Codec ID : S_TEXT/UTF8<br>
Codec ID/Info : UTF-8 Plain Text<br>
Duration : 18 min 25 s<br>
Bit rate : 0 b/s<br>
Frame rate : 0.002 FPS<br>
Count of elements : 2<br>
Stream size : 28.0 Bytes (0%)<br>
Title : Forced<br>
Language : English<br>
Default : No<br>
Forced : Yes<br>
<br>
Text #2<br>
ID : 5<br>
Format : UTF-8<br>
Codec ID : S_TEXT/UTF8<br>
Codec ID/Info : UTF-8 Plain Text<br>
Duration : 21 min 13 s<br>
Bit rate : 29 b/s<br>
Frame rate : 0.150 FPS<br>
Count of elements : 191<br>
Stream size : 4.59 KiB (0%)<br>
Language : English<br>
Default : No<br>
Forced : No<br>
<br>
Text #3<br>
ID : 6<br>
Format : UTF-8<br>
Codec ID : S_TEXT/UTF8<br>
Codec ID/Info : UTF-8 Plain Text<br>
Duration : 21 min 13 s<br>
Bit rate : 31 b/s<br>
Frame rate : 0.159 FPS<br>
Count of elements : 202<br>
Stream size : 4.85 KiB (0%)<br>
Language : Malay<br>
Default : No<br>
Forced : No</div>
</div><br>
<b>Screenshots</b><br>
<img src="https://i.imgur.com/a0FCzxq.png" class="bbCodeImage LbImage" alt="[​IMG]" data-url="https://i.imgur.com/a0FCzxq.png" style=""><br>
<b><a href="https://imgur.com/a/V2WQK2n" target="_blank" class="externalLink" rel="nofollow">More Episodes Screenshots</a></b><br>
<br>
<b>Download</b><br>
<div class="bbCodeBlock bbCodeVfcHH HiddenContent">
<div class="attribution type">Hidden Content:</div>
<blockquote>You must reply before you can see the hidden data contained here.</blockquote>
</div></div>
<div class="messageTextEndMarker">&nbsp;</div>
</blockquote>
</article>]]></description>
                <author><![CDATA[Samuel]]></author>
                </item>

                </channel></rss>